<?xml version="1.0" standalone="no"?>
<!DOCTYPE svg PUBLIC "-//W3C//DTD SVG 20010904//EN"
 "http://www.w3.org/TR/2001/REC-SVG-20010904/DTD/svg10.dtd">
<svg version="1.0" xmlns="http://www.w3.org/2000/svg"
 width="1024.000000pt" height="1024.000000pt" viewBox="0 0 1024.000000 1024.000000"
 preserveAspectRatio="xMidYMid meet">

<g transform="translate(0.000000,1024.000000) scale(0.100000,-0.100000)"
fill="#009688" stroke="none">
<path d="M7120 8591 c-123 -38 -196 -130 -207 -262 l-6 -68 -116 -89 c-64 -49
-164 -121 -223 -161 l-108 -71 -60 41 c-296 202 -716 72 -831 -257 -46 -134
-33 -312 33 -446 62 -124 205 -236 343 -269 72 -16 214 -14 282 6 119 34 235
118 299 215 l24 36 123 -61 c67 -34 173 -84 234 -111 l113 -49 0 -36 c0 -92
63 -189 152 -233 42 -21 66 -26 122 -25 82 1 117 12 178 55 95 67 136 221 88
332 -30 70 -102 136 -171 156 -94 28 -165 18 -245 -37 l-47 -32 -136 67 c-75
38 -184 89 -242 114 l-106 46 4 77 c4 69 -13 168 -40 231 -5 11 28 37 126 100
72 47 173 117 223 156 l92 72 49 -24 c108 -54 222 -39 311 41 127 114 127 306
1 419 -73 66 -176 92 -259 67z"/>
<path d="M5105 7810 c-247 -4 -295 -7 -316 -21 -15 -10 -162 -245 -364 -580
-398 -664 -379 -633 -392 -617 -5 7 -162 267 -348 578 -186 311 -347 576 -359
588 -46 51 -52 52 -411 52 l-335 0 0 -1371 0 -1370 365 2 365 2 0 801 c0 788
1 801 19 771 11 -16 175 -290 366 -608 191 -318 351 -575 356 -570 4 4 145
242 312 528 167 286 336 574 375 640 l72 120 0 -310 1 -310 23 70 c81 250 274
473 514 594 l62 31 0 215 c0 191 -3 225 -22 298 -29 107 -31 309 -4 406 9 35
16 64 14 65 -2 0 -134 -1 -293 -4z"/>
<path d="M5905 6764 c-248 -27 -465 -104 -627 -224 -349 -257 -413 -839 -128
-1163 79 -90 233 -183 408 -247 48 -17 215 -65 372 -105 157 -41 305 -81 330
-90 189 -67 262 -212 173 -339 -34 -48 -74 -77 -151 -108 -52 -21 -73 -23
-245 -23 l-188 0 -46 55 c-309 370 -671 526 -1288 555 -453 22 -964 -109
-1334 -343 l-95 -59 -69 23 c-87 30 -249 70 -349 88 l-78 13 0 -73 c0 -57 3
-74 14 -74 24 0 255 -69 356 -106 224 -82 500 -240 700 -401 108 -87 309 -281
403 -390 108 -127 235 -301 312 -428 l68 -114 118 113 c275 265 574 442 907
536 186 52 265 61 592 70 272 8 316 11 410 33 435 103 689 405 690 820 0 133
-22 233 -77 347 -38 80 -59 108 -127 175 -157 155 -314 223 -740 320 -251 57
-297 70 -371 107 -73 36 -112 71 -136 123 -53 114 15 240 160 297 46 17 83 22
204 26 153 4 247 -5 397 -39 184 -42 416 -131 515 -198 25 -17 45 -25 45 -19
0 6 18 143 40 306 23 162 39 296 38 297 -11 11 -155 71 -240 100 -269 94 -488
135 -743 140 -99 2 -198 1 -220 -1z m-1210 -1855 c126 -13 303 -52 414 -91 84
-30 247 -106 240 -113 -2 -1 -69 -8 -148 -15 -80 -7 -195 -22 -255 -35 l-111
-22 -100 84 c-55 47 -139 110 -187 141 -48 32 -87 59 -87 62 -1 7 106 2 234
-11z m-462 -54 c115 -56 271 -155 365 -232 45 -35 51 -44 35 -49 -218 -69
-474 -205 -663 -352 -62 -49 -65 -50 -86 -34 -12 9 -55 44 -95 77 -106 86
-330 232 -436 285 -51 25 -92 48 -92 51 -2 11 276 148 374 184 170 63 389 123
458 124 15 1 78 -24 140 -54z m1428 -418 c67 -86 187 -273 204 -320 6 -14 1
-17 -35 -17 -94 0 -394 -58 -490 -94 -11 -4 -29 19 -65 81 -56 97 -170 256
-252 350 l-54 61 70 12 c116 19 238 28 396 26 l150 -1 76 -98z m-808 -56 c87
-93 195 -233 263 -343 30 -49 54 -91 52 -93 -2 -1 -50 -26 -107 -55 -195 -97
-368 -215 -509 -345 -40 -37 -74 -66 -75 -64 -122 189 -237 340 -367 480 l-89
96 87 66 c107 80 207 141 332 202 97 46 302 124 331 124 9 1 46 -30 82 -68z"/>
</g>
</svg>
